<svg xmlns="http://www.w3.org/2000/svg" viewBox="0 0 1600 250" width="1600" height="250" preserveAspectRatio="xMidYMax slice"><defs><linearGradient id="g" x1="0" y1="0" x2="0" y2="1"><stop offset="0" stop-color="#154733"/><stop offset="1" stop-color="#0c2e20"/></linearGradient></defs><g fill="url(#g)"><rect x="72.4" y="218.8" width="7.2" height="34.2"/><path d="M76.0 20.9 L95.7 67.5 L87.8 61.8 L79.9 70.0 L72.0 65.2 L64.2 70.6 L56.3 67.5 Z"/><path d="M76.0 48.5 L102.1 95.1 L91.6 89.8 L81.2 96.7 L70.8 89.9 L60.4 97.0 L49.9 95.1 Z"/><path d="M76.0 76.1 L108.4 122.7 L95.4 124.1 L82.5 125.7 L69.5 120.2 L56.5 125.8 L43.6 122.7 Z"/><path d="M76.0 103.7 L114.7 150.3 L99.2 146.1 L83.7 152.1 L68.2 150.6 L52.7 153.3 L37.2 150.3 Z"/><path d="M76.0 131.3 L121.1 177.9 L103.1 174.2 L85.0 181.0 L67.0 177.7 L48.9 179.9 L30.9 177.9 Z"/><path d="M76.0 159.0 L127.4 205.6 L106.9 208.7 L86.3 206.9 L65.7 205.2 L45.1 208.5 L24.6 205.6 Z"/><rect x="135.1" y="223.5" width="5.4" height="29.5"/><path d="M137.8 54.8 L153.4 102.4 L147.2 99.2 L140.9 102.6 L134.7 98.0 L128.4 102.7 L122.1 102.4 Z"/><path d="M137.8 83.0 L159.1 130.7 L150.6 128.9 L142.1 130.8 L133.5 126.8 L125.0 133.0 L116.5 130.7 Z"/><path d="M137.8 111.3 L164.8 159.0 L154.0 152.9 L143.2 161.2 L132.4 160.6 L121.6 162.2 L110.8 159.0 Z"/><path d="M137.8 139.5 L170.5 187.2 L157.4 186.1 L144.3 190.1 L131.3 181.5 L118.2 187.5 L105.1 187.2 Z"/><path d="M137.8 167.8 L176.1 215.5 L160.8 216.9 L145.5 218.7 L130.1 213.8 L114.8 218.4 L99.4 215.5 Z"/><rect x="266.3" y="229.7" width="3.9" height="23.3"/><path d="M268.3 98.6 L278.4 125.1 L274.3 124.0 L270.3 126.6 L266.2 126.5 L262.2 126.7 L258.2 125.1 Z"/><path d="M268.3 114.3 L281.3 140.7 L276.1 142.6 L270.9 141.2 L265.7 139.1 L260.4 141.9 L255.2 140.7 Z"/><path d="M268.3 130.0 L284.2 156.4 L277.8 157.5 L271.5 157.2 L265.1 153.9 L258.7 158.2 L252.3 156.4 Z"/><path d="M268.3 145.6 L287.2 172.1 L279.6 168.8 L272.0 172.3 L264.5 170.0 L256.9 173.0 L249.4 172.1 Z"/><path d="M268.3 161.3 L290.1 187.8 L281.4 187.4 L272.6 189.1 L263.9 185.0 L255.2 188.6 L246.5 187.8 Z"/><path d="M268.3 177.0 L293.0 203.4 L283.1 205.1 L273.2 204.8 L263.3 205.3 L253.4 205.1 L243.5 203.4 Z"/><path d="M268.3 192.7 L295.9 219.1 L284.9 215.8 L273.8 219.7 L262.7 218.7 L251.7 220.8 L240.6 219.1 Z"/><rect x="368.2" y="228.5" width="4.4" height="24.5"/><path d="M370.4 90.0 L382.0 117.9 L377.3 119.6 L372.7 118.9 L368.1 116.9 L363.4 119.5 L358.8 117.9 Z"/><path d="M370.4 106.6 L385.4 134.5 L379.4 133.3 L373.4 135.6 L367.4 134.0 L361.4 135.1 L355.4 134.5 Z"/><path d="M370.4 123.1 L388.7 151.1 L381.4 153.1 L374.0 152.4 L366.7 148.6 L359.4 152.8 L352.0 151.1 Z"/><path d="M370.4 139.7 L392.1 167.6 L383.4 164.7 L374.7 169.3 L366.0 165.7 L357.4 169.3 L348.7 167.6 Z"/><path d="M370.4 156.2 L395.4 184.2 L385.4 183.7 L375.4 185.4 L365.4 185.8 L355.3 184.8 L345.3 184.2 Z"/><path d="M370.4 172.8 L398.8 200.7 L387.4 200.0 L376.1 201.4 L364.7 199.7 L353.3 201.7 L342.0 200.7 Z"/><path d="M370.4 189.4 L402.1 217.3 L389.4 216.3 L376.7 218.8 L364.0 214.2 L351.3 219.2 L338.6 217.3 Z"/><rect x="452.4" y="230.3" width="4.4" height="22.7"/><path d="M454.7 102.9 L467.5 138.9 L462.4 135.1 L457.2 140.2 L452.1 135.7 L446.9 139.8 L441.8 138.9 Z"/><path d="M454.7 124.2 L472.2 160.2 L465.2 158.3 L458.2 162.1 L451.2 160.5 L444.1 161.9 L437.1 160.2 Z"/><path d="M454.7 145.5 L476.8 181.5 L468.0 181.9 L459.1 181.7 L450.2 181.6 L441.4 183.2 L432.5 181.5 Z"/><path d="M454.7 166.9 L481.5 202.9 L470.8 202.4 L460.0 203.4 L449.3 202.0 L438.6 204.1 L427.8 202.9 Z"/><path d="M454.7 188.2 L486.2 224.2 L473.6 224.9 L461.0 226.1 L448.4 226.2 L435.8 226.3 L423.2 224.2 Z"/><rect x="579.6" y="224.6" width="5.7" height="28.4"/><path d="M582.5 62.3 L598.0 100.5 L591.8 95.5 L585.6 102.9 L579.4 100.4 L573.2 101.6 L567.0 100.5 Z"/><path d="M582.5 84.9 L602.9 123.2 L594.7 118.1 L586.6 125.2 L578.4 119.9 L570.2 126.0 L562.0 123.2 Z"/><path d="M582.5 107.6 L607.9 145.8 L597.7 148.3 L587.6 146.5 L577.4 147.7 L567.2 146.5 L557.0 145.8 Z"/><path d="M582.5 130.2 L612.9 168.4 L600.7 166.8 L588.6 170.0 L576.4 168.0 L564.2 171.1 L552.0 168.4 Z"/><path d="M582.5 152.9 L617.9 191.1 L603.7 192.3 L589.5 192.4 L575.4 189.0 L561.2 191.8 L547.1 191.1 Z"/><path d="M582.5 175.5 L622.9 213.7 L606.7 215.1 L590.5 215.2 L574.4 211.7 L558.2 215.6 L542.1 213.7 Z"/><rect x="683.6" y="230.6" width="4.4" height="22.4"/><path d="M685.8 105.5 L698.7 140.9 L693.5 138.9 L688.4 141.7 L683.2 139.1 L678.1 143.4 L672.9 140.9 Z"/><path d="M685.8 126.5 L703.4 161.8 L696.3 163.6 L689.3 162.5 L682.3 157.2 L675.3 164.1 L668.3 161.8 Z"/><path d="M685.8 147.4 L708.0 182.8 L699.1 180.4 L690.3 183.0 L681.4 183.2 L672.5 183.1 L663.6 182.8 Z"/><path d="M685.8 168.4 L712.7 203.7 L701.9 204.2 L691.2 204.3 L680.4 206.0 L669.7 206.2 L658.9 203.7 Z"/><path d="M685.8 189.3 L717.4 224.7 L704.8 221.7 L692.1 227.0 L679.5 227.1 L666.9 226.4 L654.2 224.7 Z"/><rect x="801.8" y="222.6" width="5.9" height="30.4"/><path d="M804.8 48.5 L821.9 97.7 L815.0 92.6 L808.2 100.6 L801.3 97.0 L794.5 100.2 L787.6 97.7 Z"/><path d="M804.8 77.7 L828.1 126.9 L818.8 124.2 L809.4 128.6 L800.1 121.7 L790.8 129.0 L781.4 126.9 Z"/><path d="M804.8 106.8 L834.3 156.0 L822.5 156.0 L810.7 157.3 L798.8 152.1 L787.0 156.4 L775.2 156.0 Z"/><path d="M804.8 136.0 L840.5 185.2 L826.2 185.6 L811.9 185.7 L797.6 178.8 L783.3 185.3 L769.0 185.2 Z"/><path d="M804.8 165.1 L846.7 214.3 L829.9 216.7 L813.1 216.6 L796.4 210.1 L779.6 215.0 L762.8 214.3 Z"/><rect x="929.1" y="226.6" width="5.3" height="26.4"/><path d="M931.8 76.5 L947.1 118.9 L941.0 117.7 L934.8 121.0 L928.7 120.2 L922.6 120.1 L916.4 118.9 Z"/><path d="M931.8 101.7 L952.7 144.1 L944.3 145.8 L936.0 146.2 L927.6 143.5 L919.2 147.1 L910.9 144.1 Z"/><path d="M931.8 126.8 L958.3 169.2 L947.7 165.8 L937.1 170.9 L926.5 170.9 L915.9 169.5 L905.3 169.2 Z"/><path d="M931.8 151.9 L963.8 194.3 L951.0 194.2 L938.2 194.5 L925.4 197.1 L912.5 196.5 L899.7 194.3 Z"/><path d="M931.8 177.0 L969.4 219.4 L954.3 215.4 L939.3 221.3 L924.3 219.3 L909.2 221.0 L894.2 219.4 Z"/><rect x="1003.5" y="223.8" width="5.7" height="29.2"/><path d="M1006.3 56.7 L1023.0 103.9 L1016.3 102.1 L1009.7 105.2 L1003.0 103.2 L996.4 105.3 L989.7 103.9 Z"/><path d="M1006.3 84.6 L1029.0 131.9 L1019.9 126.4 L1010.9 132.0 L1001.8 128.9 L992.7 133.9 L983.7 131.9 Z"/><path d="M1006.3 112.6 L1035.0 159.9 L1023.5 162.7 L1012.1 160.5 L1000.6 159.5 L989.1 162.0 L977.6 159.9 Z"/><path d="M1006.3 140.6 L1041.0 187.8 L1027.2 190.8 L1013.3 191.2 L999.4 187.5 L985.5 188.0 L971.6 187.8 Z"/><path d="M1006.3 168.6 L1047.1 215.8 L1030.8 212.1 L1014.5 216.9 L998.2 212.8 L981.9 218.4 L965.6 215.8 Z"/><rect x="1108.0" y="230.3" width="4.1" height="22.7"/><path d="M1110.1 102.9 L1122.1 138.9 L1117.3 140.4 L1112.5 138.9 L1107.7 135.9 L1102.9 139.4 L1098.1 138.9 Z"/><path d="M1110.1 124.2 L1126.4 160.2 L1119.9 159.4 L1113.4 160.9 L1106.8 155.9 L1100.3 161.7 L1093.8 160.2 Z"/><path d="M1110.1 145.5 L1130.8 181.5 L1122.5 179.1 L1114.2 181.6 L1106.0 178.2 L1097.7 183.9 L1089.4 181.5 Z"/><path d="M1110.1 166.9 L1135.1 202.9 L1125.1 205.4 L1115.1 204.2 L1105.1 204.0 L1095.1 203.8 L1085.1 202.9 Z"/><path d="M1110.1 188.2 L1139.5 224.2 L1127.7 220.5 L1116.0 224.8 L1104.2 224.5 L1092.5 225.0 L1080.7 224.2 Z"/><rect x="1235.6" y="223.5" width="5.4" height="29.5"/><path d="M1238.3 54.9 L1253.1 94.6 L1247.2 93.5 L1241.2 96.0 L1235.3 91.0 L1229.4 96.7 L1223.5 94.6 Z"/><path d="M1238.3 78.4 L1257.8 118.1 L1250.0 113.1 L1242.2 121.0 L1234.4 114.6 L1226.6 119.4 L1218.7 118.1 Z"/><path d="M1238.3 102.0 L1262.6 141.7 L1252.9 137.2 L1243.2 144.2 L1233.4 138.9 L1223.7 141.9 L1214.0 141.7 Z"/><path d="M1238.3 125.5 L1267.4 165.2 L1255.7 162.7 L1244.1 167.8 L1232.5 160.6 L1220.8 165.3 L1209.2 165.2 Z"/><path d="M1238.3 149.0 L1272.1 188.7 L1258.6 190.8 L1245.1 189.3 L1231.5 191.0 L1218.0 191.4 L1204.4 188.7 Z"/><path d="M1238.3 172.6 L1276.9 212.3 L1261.5 208.7 L1246.0 213.1 L1230.6 207.3 L1215.1 213.4 L1199.7 212.3 Z"/><rect x="1338.9" y="229.0" width="4.0" height="24.0"/><path d="M1340.9 93.7 L1351.3 121.0 L1347.2 121.5 L1343.0 122.0 L1338.8 120.6 L1334.7 121.8 L1330.5 121.0 Z"/><path d="M1340.9 109.9 L1354.3 137.2 L1349.0 139.2 L1343.6 137.4 L1338.2 134.0 L1332.9 137.9 L1327.5 137.2 Z"/><path d="M1340.9 126.1 L1357.3 153.4 L1350.8 151.6 L1344.2 154.1 L1337.6 154.6 L1331.1 153.7 L1324.5 153.4 Z"/><path d="M1340.9 142.2 L1360.3 169.5 L1352.6 168.8 L1344.8 170.1 L1337.0 166.5 L1329.3 171.1 L1321.5 169.5 Z"/><path d="M1340.9 158.4 L1363.3 185.7 L1354.4 182.5 L1345.4 186.6 L1336.4 185.6 L1327.5 187.7 L1318.5 185.7 Z"/><path d="M1340.9 174.6 L1366.3 201.9 L1356.2 199.6 L1346.0 203.1 L1335.8 203.7 L1325.7 203.9 L1315.5 201.9 Z"/><path d="M1340.9 190.8 L1369.4 218.1 L1358.0 219.3 L1346.6 220.1 L1335.2 216.4 L1323.9 218.2 L1312.5 218.1 Z"/><rect x="1427.8" y="220.5" width="5.5" height="32.5"/><path d="M1430.6 33.5 L1445.0 71.2 L1439.3 67.0 L1433.5 72.9 L1427.7 67.4 L1421.9 73.8 L1416.1 71.2 Z"/><path d="M1430.6 55.9 L1449.2 93.6 L1441.8 93.9 L1434.3 94.6 L1426.9 91.6 L1419.4 94.1 L1411.9 93.6 Z"/><path d="M1430.6 78.2 L1453.4 116.0 L1444.3 117.2 L1435.1 116.6 L1426.0 112.6 L1416.9 118.4 L1407.8 116.0 Z"/><path d="M1430.6 100.6 L1457.6 138.4 L1446.8 140.1 L1436.0 139.6 L1425.2 133.5 L1414.4 139.5 L1403.6 138.4 Z"/><path d="M1430.6 123.0 L1461.8 160.7 L1449.3 160.2 L1436.8 162.1 L1424.3 157.2 L1411.9 162.1 L1399.4 160.7 Z"/><path d="M1430.6 145.4 L1465.9 183.1 L1451.8 181.7 L1437.7 184.3 L1423.5 178.6 L1409.4 183.7 L1395.2 183.1 Z"/><path d="M1430.6 167.7 L1470.1 205.5 L1454.3 201.7 L1438.5 207.5 L1422.7 203.6 L1406.9 206.0 L1391.1 205.5 Z"/><rect x="1524.3" y="230.1" width="3.6" height="22.9"/><path d="M1526.1 101.6 L1535.5 127.6 L1531.7 125.1 L1528.0 127.9 L1524.2 125.4 L1520.4 129.3 L1516.7 127.6 Z"/><path d="M1526.1 117.0 L1538.2 142.9 L1533.4 142.5 L1528.5 144.7 L1523.7 141.2 L1518.8 144.1 L1514.0 142.9 Z"/><path d="M1526.1 132.4 L1541.0 158.3 L1535.0 158.4 L1529.1 158.7 L1523.1 156.4 L1517.2 159.9 L1511.2 158.3 Z"/><path d="M1526.1 147.7 L1543.7 173.6 L1536.6 172.2 L1529.6 174.8 L1522.6 174.4 L1515.5 174.5 L1508.5 173.6 Z"/><path d="M1526.1 163.1 L1546.4 189.0 L1538.3 186.7 L1530.2 190.3 L1522.0 187.9 L1513.9 189.1 L1505.8 189.0 Z"/><path d="M1526.1 178.5 L1549.1 204.4 L1539.9 205.8 L1530.7 206.1 L1521.5 201.6 L1512.3 206.2 L1503.1 204.4 Z"/><path d="M1526.1 193.8 L1551.8 219.7 L1541.5 219.7 L1531.2 221.6 L1520.9 221.5 L1510.7 220.1 L1500.4 219.7 Z"/></g></svg>